<svg width="1920" height="329" viewBox="0 0 1920 329" fill="none" xmlns="http://www.w3.org/2000/svg">
<path d="M-0.999954 0.5L1922.5 212.389L1922.5 324.5L-0.99997 108.5L-0.999954 0.5Z" fill="black"/>
<path d="M65.9072 73.7262L46.0679 63.1368L46.415 59.9879L68.0844 53.9738L67.7583 56.9319L47.3978 62.4625L47.5661 60.9357L66.2332 70.7681L65.9072 73.7262ZM66.7856 85.5576L87.4841 42.3493L90.5854 42.6911L69.8868 85.8995L66.7856 85.5576ZM98.9551 84.2744L91.3765 49.6356L95.0026 50.0353L102.081 82.6391L100.268 82.4392L114.612 52.1967L117.856 52.5543L125.126 85.1791L123.408 84.9898L137.513 54.721L140.901 55.0943L125.96 87.251L122.238 86.8408L115.267 55.8907L116.221 55.9959L102.629 84.6794L98.9551 84.2744ZM151.68 90.3275C149.072 90.04 146.841 89.2468 144.988 87.948C143.139 86.6174 141.763 84.9365 140.86 82.9053C139.961 80.8424 139.648 78.5704 139.921 76.0894C140.195 73.6085 140.961 71.4716 142.221 69.6788C143.513 67.8896 145.141 66.5559 147.105 65.6778C149.104 64.7714 151.265 64.4462 153.587 64.7021C155.941 64.9616 157.965 65.7319 159.658 67.0132C161.388 68.2662 162.67 69.9207 163.506 71.9766C164.345 74.0008 164.626 76.2692 164.349 78.782C164.332 78.941 164.297 79.1142 164.244 79.3016C164.226 79.4606 164.207 79.6355 164.186 79.8264L142.382 77.4231L142.661 74.8944L162.652 77.0979L161.205 77.9525C161.405 76.1395 161.185 74.4894 160.544 73.0022C159.938 71.4868 159.011 70.2578 157.763 69.3154C156.515 68.373 155.016 67.8053 153.266 67.6125C151.549 67.4232 149.962 67.6507 148.507 68.2952C147.051 68.9396 145.863 69.9354 144.942 71.2826C144.021 72.6298 143.459 74.2258 143.255 76.0706L143.197 76.5954C142.987 78.5039 143.215 80.2352 143.881 81.7895C144.582 83.3155 145.634 84.5744 147.038 85.5662C148.477 86.5296 150.167 87.1183 152.107 87.3322C153.634 87.5005 155.079 87.3861 156.442 86.9891C157.838 86.5957 159.074 85.8949 160.151 84.8868L161.818 87.2919C160.557 88.5051 159.045 89.3686 157.283 89.8826C155.551 90.4 153.684 90.5483 151.68 90.3275ZM182.765 93.7537C180.57 93.5118 178.652 92.8014 177.011 91.6226C175.374 90.4119 174.152 88.7963 173.344 86.7756C172.537 84.755 172.282 82.3929 172.58 79.6892C172.882 76.9538 173.645 74.7039 174.869 72.9394C176.129 71.1467 177.689 69.8537 179.547 69.0605C181.405 68.2673 183.415 67.9899 185.578 68.2283C187.964 68.4913 190.035 69.2669 191.793 70.5552C193.585 71.8152 194.917 73.459 195.788 75.4866C196.659 77.5143 196.955 79.8004 196.674 82.345C196.397 84.8578 195.611 87.0247 194.316 88.8457C193.024 90.635 191.364 91.9651 189.337 92.8362C187.341 93.7108 185.15 94.0167 182.765 93.7537ZM169.861 92.09L173.763 56.6884L177.151 57.0618L175.194 74.8103L174.16 79.8151L173.936 84.9093L173.106 92.4476L169.861 92.09ZM182.857 90.7216C184.639 90.918 186.273 90.6957 187.76 90.0547C189.251 89.382 190.49 88.3597 191.478 86.9877C192.47 85.5839 193.073 83.9119 193.287 81.9716C193.504 79.9996 193.28 78.2364 192.614 76.6821C191.949 75.1278 190.96 73.8759 189.648 72.9265C188.339 71.9452 186.795 71.3564 185.013 71.1601C183.232 70.9638 181.58 71.2002 180.058 71.8694C178.571 72.5104 177.333 73.5168 176.345 74.8888C175.388 76.2643 174.801 77.9381 174.584 79.9101C174.37 81.8504 174.578 83.6118 175.209 85.1944C175.875 86.7487 176.862 88.0164 178.17 88.9977C179.514 89.9507 181.076 90.5253 182.857 90.7216ZM215.399 97.1094L219.08 63.7117L231.581 65.0895C234.412 65.4015 236.794 66.1309 238.728 67.2777C240.665 68.3927 242.08 69.8686 242.972 71.7054C243.9 73.5139 244.23 75.6268 243.964 78.0442C243.704 80.3979 242.923 82.3723 241.621 83.9671C240.354 85.5337 238.651 86.666 236.514 87.3641C234.377 88.0621 231.892 88.2551 229.062 87.9431L218.517 86.7809L220.276 85.2845L218.93 97.4985L215.399 97.1094ZM220.244 85.5708L218.859 83.6796L229.308 84.8313C232.648 85.1995 235.255 84.7625 237.131 83.5205C239.041 82.2502 240.142 80.295 240.433 77.655C240.728 74.9832 240.081 72.8193 238.493 71.1634C236.936 69.5109 234.488 68.5006 231.149 68.1325L220.7 66.9808L222.458 65.4844L220.244 85.5708ZM258.937 102.15C256.329 101.862 254.098 101.069 252.245 99.7703C250.396 98.4397 249.02 96.7588 248.117 94.7276C247.217 92.6647 246.904 90.3927 247.178 87.9117C247.451 85.4308 248.218 83.2939 249.478 81.5011C250.77 79.7119 252.398 78.3782 254.362 77.5001C256.361 76.5937 258.522 76.2685 260.844 76.5244C263.197 76.7839 265.221 77.5542 266.915 78.8355C268.644 80.0885 269.927 81.743 270.762 83.7989C271.602 85.8231 271.883 88.0915 271.606 90.6043C271.588 90.7633 271.553 90.9365 271.5 91.1239C271.483 91.2829 271.464 91.4578 271.443 91.6487L249.639 89.2454L249.917 86.7167L269.908 88.9202L268.462 89.7748C268.662 87.9618 268.441 86.3117 267.8 84.8245C267.195 83.3091 266.268 82.0801 265.019 81.1377C263.771 80.1953 262.272 79.6276 260.523 79.4348C258.805 79.2455 257.219 79.473 255.764 80.1175C254.308 80.7619 253.12 81.7577 252.199 83.1049C251.278 84.4521 250.715 86.0481 250.512 87.8929L250.454 88.4177C250.244 90.3262 250.471 92.0575 251.137 93.6118C251.838 95.1378 252.891 96.3967 254.294 97.3885C255.734 98.3519 257.423 98.9406 259.363 99.1545C260.89 99.3228 262.335 99.2084 263.699 98.8114C265.095 98.418 266.331 97.7172 267.408 96.7091L269.074 99.1142C267.814 100.327 266.302 101.191 264.539 101.705C262.808 102.222 260.941 102.371 258.937 102.15ZM286.759 114.585C284.468 114.332 282.311 113.756 280.285 112.857C278.259 111.958 276.663 110.816 275.495 109.432L277.497 107.045C278.558 108.224 279.914 109.211 281.565 110.004C283.244 110.833 285.054 111.355 286.994 111.568C290.175 111.919 292.595 111.429 294.255 110.099C295.911 108.801 296.911 106.593 297.255 103.476L297.944 97.2258L298.894 92.9843L299.034 88.6535L299.87 81.0675L303.114 81.4251L300.69 103.42C300.213 107.746 298.798 110.793 296.447 112.562C294.123 114.366 290.894 115.041 286.759 114.585ZM287.29 104.068C284.904 103.805 282.814 103.059 281.017 101.831C279.225 100.571 277.873 98.9572 276.963 96.9897C276.085 95.0257 275.778 92.8509 276.041 90.4653C276.304 88.0798 277.076 86.0401 278.357 84.3463C279.674 82.6241 281.342 81.3594 283.363 80.5519C285.383 79.7444 287.587 79.4721 289.972 79.7351C292.199 79.9805 294.152 80.6626 295.831 81.7813C297.511 82.9001 298.775 84.4238 299.625 86.3525C300.475 88.2812 300.756 90.5497 300.469 93.1579C300.181 95.7661 299.413 97.9189 298.163 99.6162C296.914 101.314 295.346 102.541 293.459 103.299C291.573 104.057 289.517 104.313 287.29 104.068ZM287.955 101.099C289.8 101.302 291.48 101.101 292.996 100.495C294.515 99.8579 295.763 98.9009 296.741 97.6244C297.722 96.316 298.313 94.7553 298.513 92.9423C298.712 91.1293 298.474 89.4933 297.798 88.0344C297.122 86.5756 296.11 85.3856 294.763 84.4644C293.419 83.5115 291.825 82.9333 289.98 82.73C288.167 82.5301 286.485 82.7472 284.934 83.3811C283.419 83.9867 282.172 84.9278 281.194 86.2043C280.249 87.4844 279.676 89.0309 279.476 90.844C279.276 92.657 279.496 94.3071 280.137 95.7943C280.814 97.2531 281.824 98.459 283.167 99.412C284.546 100.337 286.142 100.899 287.955 101.099ZM325.476 109.243L326.086 103.708L326.043 102.786L327.063 93.5299C327.298 91.3988 326.874 89.6941 325.792 88.4158C324.741 87.141 323.039 86.3739 320.685 86.1145C319.063 85.9357 317.491 86.036 315.968 86.4154C314.445 86.7949 313.126 87.3738 312.01 88.1522L310.762 85.4553C312.153 84.514 313.771 83.8553 315.616 83.4791C317.463 83.0711 319.373 82.9758 321.345 83.1932C324.59 83.5508 326.997 84.6371 328.568 86.4521C330.174 88.2388 330.796 90.7702 330.435 94.0464L328.721 109.6L325.476 109.243ZM316.814 108.529C314.938 108.322 313.333 107.84 312 107.081C310.702 106.294 309.747 105.32 309.135 104.158C308.526 102.964 308.301 101.651 308.458 100.22C308.602 98.9157 309.034 97.7721 309.754 96.7891C310.509 95.7777 311.622 95.0311 313.092 94.5492C314.597 94.0391 316.542 93.9154 318.927 94.1784L327.563 95.1302L327.284 97.6589L318.744 96.7176C316.327 96.4511 314.594 96.6947 313.545 97.4483C312.528 98.2055 311.949 99.2202 311.809 100.492C311.651 101.924 312.081 103.13 313.1 104.112C314.119 105.093 315.63 105.694 317.634 105.915C319.542 106.126 321.228 105.877 322.69 105.169C324.188 104.432 325.346 103.272 326.164 101.688L326.67 104.11C325.851 105.694 324.593 106.892 322.894 107.702C321.226 108.517 319.2 108.792 316.814 108.529ZM344.622 111.594C342.555 111.367 340.63 110.865 338.849 110.089C337.07 109.281 335.706 108.374 334.754 107.368L336.575 104.864C337.509 105.74 338.74 106.552 340.267 107.299C341.798 108.015 343.438 108.47 345.187 108.663C347.573 108.926 349.33 108.749 350.461 108.133C351.595 107.486 352.23 106.541 352.367 105.301C352.468 104.379 352.245 103.63 351.697 103.054C351.184 102.45 350.464 101.968 349.538 101.609C348.615 101.217 347.576 100.861 346.42 100.541C345.264 100.22 344.112 99.8679 342.963 99.4837C341.846 99.103 340.837 98.6216 339.935 98.0393C339.037 97.4252 338.333 96.6554 337.824 95.73C337.346 94.8081 337.186 93.6315 337.343 92.2002C337.494 90.8324 338.011 89.6499 338.893 88.6526C339.776 87.6553 340.982 86.9351 342.512 86.4921C344.077 86.0207 345.925 85.9025 348.056 86.1374C349.678 86.3162 351.276 86.7176 352.849 87.3417C354.426 87.934 355.7 88.6379 356.673 89.4534L354.894 92.0099C353.865 91.1238 352.732 90.4516 351.494 89.9933C350.261 89.5031 349.008 89.188 347.735 89.0477C345.477 88.7988 343.763 89.0123 342.594 89.6883C341.46 90.336 340.827 91.2642 340.694 92.4729C340.589 93.4271 340.792 94.2061 341.305 94.8099C341.85 95.4173 342.582 95.9326 343.501 96.3558C344.456 96.7508 345.495 97.1068 346.619 97.4238C347.775 97.7444 348.909 98.1109 350.023 98.5234C351.172 98.9076 352.197 99.3908 353.099 99.9731C354.036 100.527 354.743 101.265 355.221 102.187C355.734 103.081 355.915 104.211 355.765 105.579C355.603 107.042 355.05 108.269 354.103 109.259C353.192 110.221 351.924 110.918 350.299 111.351C348.709 111.755 346.817 111.836 344.622 111.594ZM360.586 106.207L360.912 103.249L381.273 97.7183L381.105 99.2451L362.437 89.4127L362.763 86.4546L382.603 97.044L382.256 100.193L360.586 106.207Z" fill="white"/>
<path d="M854.991 143.704L836.67 148.687L853.465 157.54L853.139 160.498L833.3 149.909L833.647 146.76L855.322 140.698L854.991 143.704ZM874.716 129.121L877.818 129.463L857.119 172.672L854.018 172.33L874.716 129.121ZM928.133 141.867L913.192 174.023L909.47 173.613L902.829 144.051L889.861 171.452L886.187 171.047L878.609 136.408L882.235 136.807L888.707 166.592L901.844 138.969L905.136 139.332L911.783 169.28L924.745 141.493L928.133 141.867ZM951.418 166.599L930.425 164.285C930.329 166.914 931.097 169.14 932.732 170.962C934.369 172.752 936.572 173.799 939.339 174.104C940.898 174.276 942.359 174.164 943.722 173.767C945.09 173.338 946.31 172.635 947.383 171.659L949.05 174.064C947.789 175.277 946.278 176.141 944.515 176.655C942.784 177.172 940.916 177.321 938.912 177.1C936.336 176.816 934.105 176.023 932.221 174.72C930.371 173.39 928.997 171.693 928.098 169.63C927.198 167.567 926.883 165.311 927.153 162.862C927.423 160.412 928.19 158.276 929.454 156.451C930.749 154.63 932.379 153.28 934.343 152.402C936.338 151.528 938.497 151.218 940.819 151.474C943.141 151.73 945.165 152.501 946.891 153.785C948.616 155.07 949.897 156.741 950.733 158.797C951.572 160.821 951.855 163.073 951.581 165.554L951.418 166.599ZM940.498 154.385C938.081 154.118 935.96 154.673 934.134 156.049C932.343 157.397 931.2 159.3 930.704 161.756L948.5 163.718C948.551 161.212 947.833 159.105 946.348 157.396C944.897 155.658 942.948 154.655 940.498 154.385ZM972.81 155.001C975.164 155.26 977.235 156.036 979.025 157.327C980.817 158.587 982.148 160.247 983.015 162.307C983.883 164.366 984.18 166.636 983.906 169.117C983.633 171.598 982.849 173.749 981.553 175.57C980.258 177.391 978.596 178.737 976.569 179.608C974.541 180.48 972.35 180.785 969.997 180.526C967.897 180.295 966.054 179.641 964.466 178.564C962.911 177.491 961.717 176.056 960.885 174.258L960.338 179.22L957.093 178.862L960.995 143.461L964.383 143.834L962.721 158.911C963.95 157.404 965.42 156.327 967.134 155.679C968.882 155.002 970.775 154.776 972.81 155.001ZM970.089 177.494C971.839 177.687 973.473 177.464 974.992 176.827C976.515 176.158 977.756 175.119 978.716 173.712C979.708 172.308 980.309 170.652 980.519 168.744C980.729 166.835 980.503 165.088 979.841 163.502C979.211 161.919 978.224 160.652 976.88 159.699C975.54 158.714 973.995 158.125 972.246 157.932C970.464 157.736 968.813 157.972 967.29 158.642C965.803 159.283 964.563 160.305 963.572 161.709C962.612 163.116 962.027 164.774 961.816 166.682C961.606 168.591 961.816 170.336 962.446 171.919C963.108 173.505 964.094 174.789 965.402 175.77C966.746 176.723 968.308 177.298 970.089 177.494ZM1018.81 151.862C1023.08 152.332 1026.3 153.717 1028.5 156.02C1030.69 158.322 1031.59 161.254 1031.2 164.816C1030.8 168.379 1029.29 171.045 1026.64 172.814C1024.01 174.551 1020.56 175.185 1016.29 174.715L1007.32 173.727L1006.16 184.271L1002.63 183.882L1006.31 150.484L1018.81 151.862ZM1016.54 171.604C1019.85 171.968 1022.46 171.531 1024.36 170.293C1026.27 169.022 1027.37 167.067 1027.67 164.427C1027.96 161.724 1027.32 159.56 1025.72 157.936C1024.14 156.28 1021.69 155.269 1018.38 154.905L1009.51 153.927L1007.67 170.625L1016.54 171.604ZM1058.67 178.421L1037.68 176.107C1037.59 178.736 1038.35 180.962 1039.99 182.784C1041.63 184.574 1043.83 185.622 1046.6 185.927C1048.15 186.098 1049.62 185.986 1050.98 185.589C1052.35 185.16 1053.57 184.458 1054.64 183.481L1056.31 185.886C1055.05 187.1 1053.53 187.963 1051.77 188.477C1050.04 188.995 1048.17 189.143 1046.17 188.922C1043.59 188.638 1041.36 187.845 1039.48 186.543C1037.63 185.212 1036.25 183.515 1035.35 181.452C1034.45 179.389 1034.14 177.133 1034.41 174.684C1034.68 172.235 1035.45 170.098 1036.71 168.273C1038.01 166.452 1039.64 165.103 1041.6 164.225C1043.6 163.35 1045.75 163.041 1048.08 163.297C1050.4 163.553 1052.42 164.323 1054.15 165.608C1055.87 166.893 1057.15 168.563 1057.99 170.619C1058.83 172.643 1059.11 174.896 1058.84 177.377L1058.67 178.421ZM1047.76 166.207C1045.34 165.941 1043.22 166.495 1041.39 167.872C1039.6 169.22 1038.46 171.122 1037.96 173.578L1055.76 175.54C1055.81 173.034 1055.09 170.927 1053.6 169.218C1052.15 167.481 1050.2 166.477 1047.76 166.207ZM1090.35 168.15L1087.92 190.192C1087.45 194.454 1086.06 197.488 1083.73 199.292C1081.44 201.131 1078.19 201.82 1073.99 201.357C1071.67 201.101 1069.5 200.508 1067.47 199.576C1065.48 198.681 1063.9 197.556 1062.73 196.204L1064.73 193.817C1065.82 195.032 1067.19 196.036 1068.84 196.829C1070.52 197.627 1072.32 198.13 1074.23 198.341C1077.41 198.691 1079.83 198.202 1081.49 196.871C1083.14 195.573 1084.14 193.365 1084.49 190.248L1084.84 187.051C1083.61 188.526 1082.1 189.582 1080.29 190.22C1078.51 190.861 1076.59 191.068 1074.52 190.84C1072.17 190.58 1070.08 189.835 1068.25 188.603C1066.46 187.343 1065.11 185.729 1064.2 183.762C1063.32 181.766 1063.01 179.591 1063.27 177.238C1063.53 174.884 1064.3 172.844 1065.59 171.118C1066.91 169.396 1068.57 168.132 1070.59 167.324C1072.62 166.517 1074.82 166.244 1077.2 166.507C1079.34 166.742 1081.21 167.384 1082.84 168.432C1084.46 169.48 1085.71 170.873 1086.58 172.611L1087.11 167.792L1090.35 168.15ZM1075.19 187.871C1077 188.071 1078.68 187.87 1080.23 187.268C1081.78 186.634 1083.03 185.661 1083.98 184.349C1084.96 183.04 1085.55 181.496 1085.74 179.714C1085.94 177.933 1085.7 176.313 1085.02 174.854C1084.38 173.367 1083.37 172.161 1081.99 171.237C1080.65 170.284 1079.06 169.706 1077.21 169.502C1075.4 169.302 1073.72 169.503 1072.17 170.106C1070.66 170.711 1069.41 171.668 1068.43 172.977C1067.48 174.288 1066.9 175.835 1066.71 177.616C1066.51 179.397 1066.73 181.032 1067.37 182.519C1068.05 184.009 1069.06 185.231 1070.4 186.184C1071.78 187.109 1073.37 187.671 1075.19 187.871ZM1108.62 169.971C1111.9 170.332 1114.32 171.436 1115.89 173.282C1117.46 175.097 1118.07 177.611 1117.71 180.824L1116 196.378L1112.76 196.02L1113.19 192.108C1112.28 193.328 1111.04 194.221 1109.46 194.788C1107.92 195.358 1106.13 195.531 1104.09 195.307C1101.29 194.998 1099.14 194.085 1097.63 192.567C1096.13 191.048 1095.5 189.192 1095.74 186.997C1095.97 184.866 1096.92 183.233 1098.6 182.097C1100.3 180.964 1102.83 180.584 1106.21 180.956L1114.17 181.834L1114.34 180.307C1114.58 178.144 1114.16 176.44 1113.07 175.193C1111.99 173.915 1110.29 173.148 1107.96 172.892C1106.37 172.717 1104.82 172.819 1103.29 173.198C1101.78 173.546 1100.44 174.123 1099.29 174.93L1098.04 172.233C1099.43 171.291 1101.05 170.633 1102.89 170.256C1104.74 169.848 1106.65 169.753 1108.62 169.971ZM1104.91 192.693C1106.82 192.903 1108.51 192.654 1109.97 191.946C1111.43 191.206 1112.59 190.046 1113.44 188.466L1113.9 184.363L1106.02 183.495C1101.73 183.022 1099.42 184.28 1099.09 187.27C1098.93 188.733 1099.35 189.955 1100.37 190.937C1101.4 191.886 1102.91 192.472 1104.91 192.693ZM1131.9 198.372C1129.87 198.147 1127.94 197.645 1126.13 196.866C1124.35 196.058 1122.98 195.151 1122.03 194.145L1123.85 191.642C1124.81 192.584 1126.06 193.414 1127.59 194.13C1129.12 194.814 1130.75 195.251 1132.47 195.44C1134.76 195.692 1136.48 195.528 1137.64 194.948C1138.83 194.339 1139.5 193.382 1139.65 192.078C1139.75 191.156 1139.52 190.407 1138.98 189.831C1138.43 189.224 1137.71 188.742 1136.82 188.386C1135.93 187.998 1134.73 187.593 1133.23 187.17C1131.24 186.564 1129.64 186.002 1128.44 185.483C1127.25 184.933 1126.26 184.132 1125.47 183.08C1124.72 182.031 1124.44 180.663 1124.62 178.978C1124.85 176.878 1125.92 175.257 1127.81 174.114C1129.71 172.971 1132.22 172.571 1135.33 172.915C1136.96 173.094 1138.55 173.495 1140.13 174.119C1141.7 174.711 1142.98 175.415 1143.95 176.231L1142.17 178.787C1140.26 177.128 1137.88 176.141 1135.01 175.825C1132.85 175.587 1131.17 175.788 1129.97 176.428C1128.81 177.073 1128.16 178.015 1128.02 179.255C1127.92 180.21 1128.13 181.006 1128.67 181.646C1129.25 182.288 1129.98 182.803 1130.87 183.191C1131.76 183.548 1133.01 183.958 1134.6 184.423C1136.56 185.026 1138.12 185.585 1139.29 186.099C1140.46 186.614 1141.42 187.38 1142.18 188.397C1142.93 189.414 1143.22 190.734 1143.04 192.356C1142.8 194.551 1141.69 196.199 1139.7 197.299C1137.74 198.372 1135.15 198.729 1131.9 198.372ZM1169.93 183.826L1169.58 186.975L1147.91 192.989L1148.24 190.031L1166.56 185.049L1149.76 176.195L1150.09 173.189L1169.93 183.826Z" fill="white"/>
<path d="M461.375 100.318L443.054 105.301L459.849 114.154L459.523 117.112L439.684 106.523L440.031 103.374L461.706 97.3121L461.375 100.318ZM481.1 85.7353L484.202 86.0771L463.503 129.285L460.402 128.944L481.1 85.7353ZM534.517 98.4803L519.576 130.637L515.854 130.227L509.213 100.665L496.245 128.065L492.571 127.66L484.993 93.0216L488.619 93.4212L495.091 123.206L508.228 95.5827L511.52 95.9455L518.167 125.894L531.129 98.1069L534.517 98.4803ZM557.802 123.212L536.809 120.898C536.713 123.528 537.481 125.753 539.116 127.575C540.753 129.366 542.956 130.413 545.723 130.718C547.282 130.89 548.743 130.777 550.106 130.38C551.474 129.952 552.694 129.249 553.767 128.273L555.434 130.678C554.173 131.891 552.662 132.755 550.899 133.269C549.168 133.786 547.3 133.934 545.296 133.713C542.72 133.429 540.489 132.636 538.605 131.334C536.755 130.003 535.381 128.307 534.482 126.244C533.582 124.181 533.267 121.925 533.537 119.475C533.807 117.026 534.574 114.889 535.838 113.065C537.133 111.244 538.763 109.894 540.727 109.016C542.722 108.142 544.881 107.832 547.203 108.088C549.525 108.344 551.549 109.114 553.275 110.399C555 111.684 556.281 113.354 557.117 115.41C557.956 117.434 558.239 119.687 557.965 122.168L557.802 123.212ZM546.882 110.998C544.465 110.732 542.344 111.287 540.518 112.663C538.727 114.011 537.584 115.913 537.088 118.37L554.884 120.331C554.935 117.826 554.218 115.719 552.732 114.009C551.281 112.272 549.332 111.268 546.882 110.998ZM579.194 111.614C581.548 111.874 583.62 112.649 585.409 113.941C587.202 115.201 588.532 116.861 589.399 118.92C590.267 120.98 590.564 123.25 590.29 125.731C590.017 128.212 589.233 130.363 587.937 132.184C586.642 134.005 584.98 135.351 582.953 136.222C580.925 137.093 578.735 137.399 576.381 137.14C574.281 136.908 572.438 136.254 570.85 135.178C569.295 134.105 568.101 132.67 567.269 130.872L566.722 135.834L563.477 135.476L567.379 100.074L570.767 100.448L569.105 115.524C570.334 114.018 571.804 112.941 573.518 112.292C575.266 111.616 577.159 111.39 579.194 111.614ZM576.474 134.108C578.223 134.3 579.857 134.078 581.376 133.441C582.899 132.772 584.14 131.733 585.1 130.326C586.092 128.922 586.693 127.266 586.903 125.358C587.113 123.449 586.887 121.702 586.225 120.116C585.595 118.533 584.608 117.265 583.264 116.312C581.924 115.328 580.379 114.739 578.63 114.546C576.848 114.35 575.197 114.586 573.674 115.255C572.187 115.896 570.947 116.919 569.956 118.322C568.996 119.73 568.411 121.388 568.2 123.296C567.99 125.205 568.2 126.95 568.83 128.533C569.493 130.119 570.478 131.402 571.786 132.384C573.13 133.337 574.692 133.911 576.474 134.108ZM625.197 108.475C629.459 108.945 632.687 110.331 634.88 112.633C637.073 114.935 637.973 117.868 637.58 121.43C637.187 124.993 635.67 127.658 633.028 129.428C630.39 131.165 626.94 131.799 622.678 131.329L613.708 130.34L612.546 140.885L609.015 140.495L612.697 107.098L625.197 108.475ZM622.924 128.217C626.232 128.582 628.84 128.145 630.747 126.907C632.658 125.636 633.758 123.681 634.049 121.041C634.347 118.337 633.701 116.174 632.109 114.549C630.521 112.893 628.073 111.883 624.765 111.518L615.891 110.54L614.05 127.239L622.924 128.217ZM665.059 135.035L644.066 132.721C643.969 135.35 644.738 137.576 646.372 139.398C648.01 141.188 650.212 142.235 652.98 142.54C654.538 142.712 655.999 142.6 657.363 142.203C658.73 141.774 659.951 141.071 661.024 140.095L662.691 142.5C661.43 143.713 659.918 144.577 658.155 145.091C656.424 145.608 654.557 145.757 652.553 145.536C649.977 145.252 647.746 144.459 645.861 143.156C644.012 141.826 642.638 140.129 641.738 138.066C640.839 136.003 640.524 133.747 640.794 131.298C641.064 128.849 641.831 126.712 643.094 124.887C644.39 123.066 646.019 121.717 647.983 120.838C649.979 119.964 652.138 119.654 654.46 119.91C656.782 120.166 658.806 120.937 660.531 122.222C662.257 123.506 663.538 125.177 664.373 127.233C665.213 129.257 665.496 131.509 665.222 133.99L665.059 135.035ZM654.139 122.821C651.722 122.554 649.6 123.109 647.774 124.485C645.984 125.833 644.841 127.736 644.345 130.192L662.141 132.154C662.192 129.648 661.474 127.541 659.988 125.832C658.538 124.094 656.588 123.091 654.139 122.821ZM696.736 124.763L694.306 146.806C693.836 151.068 692.439 154.101 690.116 155.906C687.82 157.745 684.573 158.434 680.375 157.971C678.053 157.715 675.881 157.121 673.859 156.19C671.865 155.294 670.282 154.17 669.112 152.818L671.113 150.431C672.203 151.645 673.573 152.65 675.224 153.443C676.907 154.24 678.702 154.744 680.611 154.954C683.791 155.305 686.212 154.815 687.871 153.485C689.528 152.187 690.527 149.979 690.871 146.862L691.223 143.665C689.998 145.14 688.482 146.196 686.673 146.834C684.896 147.475 682.974 147.682 680.906 147.454C678.552 147.194 676.462 146.449 674.634 145.217C672.841 143.957 671.489 142.343 670.58 140.376C669.705 138.38 669.397 136.205 669.657 133.851C669.916 131.498 670.688 129.458 671.973 127.732C673.29 126.01 674.958 124.745 676.979 123.938C679 123.13 681.203 122.858 683.588 123.121C685.719 123.356 687.596 123.997 689.219 125.046C690.842 126.094 692.089 127.487 692.96 129.225L693.491 124.406L696.736 124.763ZM681.572 144.485C683.385 144.685 685.065 144.483 686.612 143.881C688.163 143.247 689.413 142.275 690.362 140.963C691.344 139.654 691.932 138.109 692.129 136.328C692.325 134.547 692.085 132.927 691.409 131.468C690.768 129.981 689.758 128.775 688.379 127.85C687.035 126.897 685.441 126.319 683.596 126.116C681.783 125.916 680.103 126.117 678.556 126.719C677.04 127.325 675.792 128.282 674.811 129.59C673.861 130.902 673.288 132.449 673.092 134.23C672.896 136.011 673.118 137.645 673.759 139.133C674.432 140.623 675.44 141.845 676.784 142.798C678.163 143.723 679.759 144.285 681.572 144.485ZM715.008 126.584C718.284 126.945 720.706 128.049 722.273 129.896C723.844 131.711 724.452 134.225 724.098 137.438L722.383 152.991L719.139 152.634L719.57 148.721C718.663 149.941 717.422 150.835 715.846 151.402C714.303 151.972 712.513 152.145 710.477 151.92C707.678 151.612 705.525 150.698 704.018 149.18C702.512 147.662 701.879 145.806 702.121 143.611C702.356 141.48 703.309 139.846 704.979 138.711C706.682 137.578 709.219 137.198 712.59 137.57L720.558 138.448L720.726 136.921C720.965 134.758 720.541 133.053 719.455 131.807C718.372 130.529 716.67 129.762 714.348 129.506C712.758 129.33 711.201 129.432 709.679 129.812C708.159 130.159 706.824 130.737 705.673 131.543L704.425 128.846C705.816 127.905 707.434 127.246 709.278 126.87C711.126 126.462 713.036 126.367 715.008 126.584ZM711.296 149.306C713.205 149.517 714.89 149.268 716.353 148.56C717.819 147.82 718.977 146.66 719.827 145.08L720.279 140.976L712.407 140.109C708.113 139.635 705.801 140.894 705.472 143.884C705.31 145.347 705.739 146.569 706.758 147.551C707.78 148.5 709.293 149.086 711.296 149.306ZM738.285 154.986C736.25 154.761 734.325 154.259 732.511 153.48C730.733 152.672 729.368 151.765 728.417 150.759L730.238 148.255C731.197 149.198 732.441 150.027 733.972 150.743C735.506 151.428 737.132 151.864 738.85 152.054C741.14 152.306 742.864 152.142 744.023 151.562C745.217 150.953 745.886 149.996 746.029 148.692C746.131 147.77 745.908 147.021 745.359 146.445C744.815 145.838 744.095 145.356 743.201 145C742.31 144.612 741.115 144.207 739.616 143.784C737.623 143.178 736.027 142.616 734.828 142.097C733.634 141.547 732.643 140.746 731.858 139.693C731.104 138.644 730.82 137.277 731.006 135.591C731.238 133.492 732.302 131.871 734.198 130.728C736.095 129.585 738.602 129.185 741.719 129.528C743.341 129.707 744.939 130.109 746.512 130.733C748.088 131.325 749.363 132.029 750.336 132.844L748.557 135.401C746.647 133.742 744.261 132.754 741.398 132.439C739.235 132.2 737.555 132.402 736.358 133.042C735.192 133.686 734.541 134.629 734.404 135.869C734.299 136.823 734.517 137.62 735.058 138.259C735.631 138.902 736.363 139.417 737.254 139.805C738.149 140.161 739.391 140.572 740.982 141.037C742.943 141.64 744.508 142.198 745.674 142.713C746.841 143.228 747.803 143.994 748.56 145.011C749.317 146.028 749.606 147.348 749.427 148.97C749.185 151.165 748.07 152.812 746.082 153.913C744.128 154.986 741.53 155.343 738.285 154.986ZM776.312 140.44L775.965 143.589L754.296 149.603L754.622 146.645L772.942 141.662L756.147 132.809L756.478 129.803L776.312 140.44Z" fill="white"/>
<path d="M1248.61 187.09L1230.29 192.073L1247.08 200.927L1246.76 203.885L1226.92 193.295L1227.26 190.146L1248.94 184.085L1248.61 187.09ZM1268.33 172.508L1271.43 172.85L1250.74 216.058L1247.63 215.716L1268.33 172.508ZM1321.75 185.253L1306.81 217.409L1303.09 216.999L1296.45 187.438L1283.48 214.838L1279.8 214.433L1272.22 179.794L1275.85 180.194L1282.32 209.978L1295.46 182.355L1298.75 182.718L1305.4 212.667L1318.36 184.879L1321.75 185.253ZM1345.03 209.985L1324.04 207.671C1323.94 210.3 1324.71 212.526 1326.35 214.348C1327.99 216.138 1330.19 217.186 1332.96 217.491C1334.51 217.662 1335.97 217.55 1337.34 217.153C1338.71 216.724 1339.93 216.022 1341 215.045L1342.67 217.45C1341.41 218.664 1339.89 219.527 1338.13 220.041C1336.4 220.558 1334.53 220.707 1332.53 220.486C1329.95 220.202 1327.72 219.409 1325.84 218.106C1323.99 216.776 1322.61 215.079 1321.71 213.016C1320.81 210.953 1320.5 208.697 1320.77 206.248C1321.04 203.799 1321.81 201.662 1323.07 199.837C1324.37 198.016 1325.99 196.667 1327.96 195.789C1329.95 194.914 1332.11 194.605 1334.44 194.861C1336.76 195.117 1338.78 195.887 1340.51 197.172C1342.23 198.456 1343.51 200.127 1344.35 202.183C1345.19 204.207 1345.47 206.459 1345.2 208.94L1345.03 209.985ZM1334.11 197.771C1331.7 197.504 1329.58 198.059 1327.75 199.436C1325.96 200.784 1324.82 202.686 1324.32 205.142L1342.12 207.104C1342.17 204.598 1341.45 202.491 1339.96 200.782C1338.51 199.045 1336.56 198.041 1334.11 197.771ZM1366.43 198.387C1368.78 198.646 1370.85 199.422 1372.64 200.714C1374.43 201.974 1375.76 203.633 1376.63 205.693C1377.5 207.752 1377.8 210.022 1377.52 212.503C1377.25 214.984 1376.46 217.135 1375.17 218.956C1373.87 220.778 1372.21 222.124 1370.19 222.995C1368.16 223.866 1365.97 224.172 1363.61 223.912C1361.51 223.681 1359.67 223.027 1358.08 221.95C1356.53 220.878 1355.33 219.442 1354.5 217.644L1353.95 222.606L1350.71 222.248L1354.61 186.847L1358 187.22L1356.34 202.297C1357.57 200.79 1359.04 199.713 1360.75 199.065C1362.5 198.388 1364.39 198.162 1366.43 198.387ZM1363.71 220.88C1365.46 221.073 1367.09 220.851 1368.61 220.213C1370.13 219.544 1371.37 218.506 1372.33 217.098C1373.32 215.695 1373.92 214.039 1374.14 212.13C1374.35 210.222 1374.12 208.474 1373.46 206.888C1372.83 205.306 1371.84 204.038 1370.5 203.085C1369.16 202.1 1367.61 201.511 1365.86 201.319C1364.08 201.122 1362.43 201.359 1360.91 202.028C1359.42 202.669 1358.18 203.691 1357.19 205.095C1356.23 206.502 1355.64 208.16 1355.43 210.069C1355.22 211.977 1355.43 213.723 1356.06 215.305C1356.72 216.891 1357.71 218.175 1359.02 219.156C1360.36 220.109 1361.92 220.684 1363.71 220.88ZM1412.43 195.248C1416.69 195.718 1419.92 197.104 1422.11 199.406C1424.3 201.708 1425.2 204.64 1424.81 208.203C1424.42 211.765 1422.9 214.431 1420.26 216.2C1417.62 217.938 1414.17 218.571 1409.91 218.102L1400.94 217.113L1399.78 227.657L1396.25 227.268L1399.93 193.87L1412.43 195.248ZM1410.16 214.99C1413.46 215.354 1416.07 214.917 1417.98 213.679C1419.89 212.409 1420.99 210.453 1421.28 207.813C1421.58 205.11 1420.93 202.946 1419.34 201.322C1417.75 199.666 1415.31 198.656 1412 198.291L1403.12 197.313L1401.28 214.012L1410.16 214.99ZM1452.29 221.807L1431.3 219.493C1431.2 222.122 1431.97 224.348 1433.6 226.17C1435.24 227.96 1437.44 229.008 1440.21 229.313C1441.77 229.485 1443.23 229.372 1444.6 228.975C1445.96 228.546 1447.18 227.844 1448.26 226.868L1449.92 229.273C1448.66 230.486 1447.15 231.349 1445.39 231.863C1443.66 232.381 1441.79 232.529 1439.79 232.308C1437.21 232.024 1434.98 231.231 1433.09 229.929C1431.24 228.598 1429.87 226.901 1428.97 224.838C1428.07 222.775 1427.76 220.519 1428.03 218.07C1428.3 215.621 1429.06 213.484 1430.33 211.66C1431.62 209.839 1433.25 208.489 1435.22 207.611C1437.21 206.736 1439.37 206.427 1441.69 206.683C1444.01 206.939 1446.04 207.709 1447.76 208.994C1449.49 210.279 1450.77 211.949 1451.61 214.005C1452.44 216.029 1452.73 218.282 1452.45 220.763L1452.29 221.807ZM1441.37 209.593C1438.95 209.327 1436.83 209.882 1435.01 211.258C1433.22 212.606 1432.07 214.508 1431.58 216.965L1449.37 218.926C1449.42 216.421 1448.71 214.313 1447.22 212.604C1445.77 210.867 1443.82 209.863 1441.37 209.593ZM1483.97 211.536L1481.54 233.578C1481.07 237.841 1479.67 240.874 1477.35 242.678C1475.05 244.518 1471.81 245.206 1467.61 244.743C1465.29 244.487 1463.11 243.894 1461.09 242.963C1459.1 242.067 1457.51 240.943 1456.34 239.59L1458.35 237.203C1459.43 238.418 1460.81 239.422 1462.46 240.216C1464.14 241.013 1465.93 241.517 1467.84 241.727C1471.02 242.078 1473.44 241.588 1475.1 240.258C1476.76 238.959 1477.76 236.751 1478.1 233.634L1478.46 230.438C1477.23 231.912 1475.71 232.969 1473.91 233.606C1472.13 234.247 1470.21 234.454 1468.14 234.226C1465.78 233.967 1463.69 233.221 1461.87 231.989C1460.07 230.729 1458.72 229.116 1457.81 227.148C1456.94 225.152 1456.63 222.978 1456.89 220.624C1457.15 218.27 1457.92 216.23 1459.21 214.505C1460.52 212.783 1462.19 211.518 1464.21 210.71C1466.23 209.903 1468.43 209.631 1470.82 209.894C1472.95 210.128 1474.83 210.77 1476.45 211.818C1478.07 212.866 1479.32 214.259 1480.19 215.997L1480.72 211.178L1483.97 211.536ZM1468.8 231.257C1470.62 231.457 1472.3 231.256 1473.84 230.654C1475.39 230.02 1476.65 229.047 1477.59 227.735C1478.58 226.427 1479.16 224.882 1479.36 223.101C1479.56 221.32 1479.32 219.699 1478.64 218.241C1478 216.753 1476.99 215.548 1475.61 214.623C1474.27 213.67 1472.67 213.092 1470.83 212.888C1469.02 212.689 1467.34 212.89 1465.79 213.492C1464.27 214.097 1463.02 215.054 1462.04 216.363C1461.09 217.675 1460.52 219.221 1460.32 221.002C1460.13 222.784 1460.35 224.418 1460.99 225.905C1461.66 227.396 1462.67 228.617 1464.02 229.57C1465.39 230.495 1466.99 231.057 1468.8 231.257ZM1502.24 213.357C1505.52 213.718 1507.94 214.822 1509.51 216.669C1511.08 218.484 1511.68 220.997 1511.33 224.21L1509.62 239.764L1506.37 239.406L1506.8 235.494C1505.9 236.714 1504.65 237.607 1503.08 238.174C1501.53 238.744 1499.74 238.917 1497.71 238.693C1494.91 238.384 1492.76 237.471 1491.25 235.953C1489.74 234.435 1489.11 232.578 1489.35 230.383C1489.59 228.252 1490.54 226.619 1492.21 225.483C1493.91 224.351 1496.45 223.97 1499.82 224.342L1507.79 225.22L1507.96 223.693C1508.2 221.531 1507.77 219.826 1506.69 218.579C1505.6 217.301 1503.9 216.534 1501.58 216.278C1499.99 216.103 1498.43 216.205 1496.91 216.584C1495.39 216.932 1494.06 217.509 1492.9 218.316L1491.66 215.619C1493.05 214.678 1494.67 214.019 1496.51 213.643C1498.36 213.235 1500.27 213.139 1502.24 213.357ZM1498.53 236.079C1500.44 236.289 1502.12 236.04 1503.58 235.332C1505.05 234.593 1506.21 233.432 1507.06 231.852L1507.51 227.749L1499.64 226.881C1495.35 226.408 1493.03 227.666 1492.7 230.656C1492.54 232.119 1492.97 233.342 1493.99 234.323C1495.01 235.273 1496.52 235.858 1498.53 236.079ZM1525.52 241.758C1523.48 241.534 1521.56 241.032 1519.74 240.252C1517.97 239.445 1516.6 238.538 1515.65 237.531L1517.47 235.028C1518.43 235.971 1519.67 236.8 1521.2 237.516C1522.74 238.2 1524.36 238.637 1526.08 238.826C1528.37 239.079 1530.1 238.915 1531.26 238.334C1532.45 237.725 1533.12 236.769 1533.26 235.465C1533.36 234.542 1533.14 233.793 1532.59 233.218C1532.05 232.61 1531.33 232.129 1530.43 231.772C1529.54 231.384 1528.35 230.979 1526.85 230.556C1524.86 229.95 1523.26 229.388 1522.06 228.87C1520.87 228.319 1519.88 227.518 1519.09 226.466C1518.34 225.417 1518.05 224.05 1518.24 222.364C1518.47 220.264 1519.53 218.643 1521.43 217.5C1523.33 216.357 1525.83 215.957 1528.95 216.301C1530.57 216.48 1532.17 216.881 1533.74 217.505C1535.32 218.098 1536.6 218.801 1537.57 219.617L1535.79 222.173C1533.88 220.514 1531.49 219.527 1528.63 219.211C1526.47 218.973 1524.79 219.174 1523.59 219.815C1522.42 220.459 1521.77 221.401 1521.64 222.642C1521.53 223.596 1521.75 224.393 1522.29 225.032C1522.86 225.674 1523.6 226.19 1524.49 226.578C1525.38 226.934 1526.62 227.344 1528.21 227.809C1530.18 228.412 1531.74 228.971 1532.91 229.486C1534.07 230.001 1535.03 230.767 1535.79 231.784C1536.55 232.801 1536.84 234.12 1536.66 235.743C1536.42 237.937 1535.3 239.585 1533.31 240.686C1531.36 241.758 1528.76 242.116 1525.52 241.758ZM1563.54 227.213L1563.2 230.362L1541.53 236.376L1541.85 233.418L1560.17 228.435L1543.38 219.581L1543.71 216.576L1563.54 227.213Z" fill="white"/>
<path d="M1642.22 230.476L1623.9 235.459L1640.7 244.312L1640.37 247.27L1620.53 236.681L1620.88 233.532L1642.55 227.47L1642.22 230.476ZM1661.95 215.893L1665.05 216.235L1644.35 259.444L1641.25 259.102L1661.95 215.893ZM1715.37 228.639L1700.42 260.795L1696.7 260.385L1690.06 230.823L1677.09 258.224L1673.42 257.819L1665.84 223.18L1669.47 223.579L1675.94 253.364L1689.08 225.741L1692.37 226.104L1699.02 256.052L1711.98 228.265L1715.37 228.639ZM1738.65 253.371L1717.66 251.057C1717.56 253.686 1718.33 255.912 1719.96 257.734C1721.6 259.524 1723.8 260.571 1726.57 260.876C1728.13 261.048 1729.59 260.936 1730.95 260.539C1732.32 260.11 1733.54 259.407 1734.62 258.431L1736.28 260.836C1735.02 262.049 1733.51 262.913 1731.75 263.427C1730.02 263.944 1728.15 264.093 1726.14 263.872C1723.57 263.588 1721.34 262.795 1719.45 261.492C1717.6 260.162 1716.23 258.465 1715.33 256.402C1714.43 254.339 1714.12 252.083 1714.39 249.634C1714.66 247.184 1715.42 245.048 1716.69 243.223C1717.98 241.402 1719.61 240.052 1721.57 239.174C1723.57 238.3 1725.73 237.99 1728.05 238.246C1730.37 238.502 1732.4 239.273 1734.12 240.557C1735.85 241.842 1737.13 243.513 1737.97 245.569C1738.8 247.593 1739.09 249.845 1738.81 252.326L1738.65 253.371ZM1727.73 241.157C1725.31 240.89 1723.19 241.445 1721.37 242.821C1719.58 244.169 1718.43 246.072 1717.94 248.528L1735.73 250.49C1735.78 247.984 1735.07 245.877 1733.58 244.168C1732.13 242.43 1730.18 241.427 1727.73 241.157ZM1760.04 241.772C1762.4 242.032 1764.47 242.808 1766.26 244.099C1768.05 245.359 1769.38 247.019 1770.25 249.079C1771.12 251.138 1771.41 253.408 1771.14 255.889C1770.87 258.37 1770.08 260.521 1768.79 262.342C1767.49 264.163 1765.83 265.509 1763.8 266.38C1761.77 267.252 1759.58 267.557 1757.23 267.298C1755.13 267.067 1753.29 266.413 1751.7 265.336C1750.14 264.263 1748.95 262.828 1748.12 261.03L1747.57 265.992L1744.33 265.634L1748.23 230.233L1751.62 230.606L1749.95 245.683C1751.18 244.176 1752.65 243.099 1754.37 242.451C1756.11 241.774 1758.01 241.548 1760.04 241.772ZM1757.32 264.266C1759.07 264.459 1760.71 264.236 1762.22 263.599C1763.75 262.93 1764.99 261.891 1765.95 260.484C1766.94 259.08 1767.54 257.424 1767.75 255.516C1767.96 253.607 1767.74 251.86 1767.07 250.274C1766.44 248.691 1765.46 247.424 1764.11 246.471C1762.77 245.486 1761.23 244.897 1759.48 244.704C1757.7 244.508 1756.04 244.744 1754.52 245.414C1753.04 246.055 1751.8 247.077 1750.8 248.481C1749.84 249.888 1749.26 251.546 1749.05 253.454C1748.84 255.363 1749.05 257.108 1749.68 258.691C1750.34 260.277 1751.33 261.561 1752.63 262.542C1753.98 263.495 1755.54 264.069 1757.32 264.266ZM1806.05 238.634C1810.31 239.103 1813.53 240.489 1815.73 242.792C1817.92 245.094 1818.82 248.026 1818.43 251.588C1818.04 255.151 1816.52 257.817 1813.88 259.586C1811.24 261.323 1807.79 261.957 1803.53 261.487L1794.56 260.499L1793.39 271.043L1789.86 270.654L1793.54 237.256L1806.05 238.634ZM1803.77 258.376C1807.08 258.74 1809.69 258.303 1811.6 257.065C1813.51 255.794 1814.61 253.839 1814.9 251.199C1815.2 248.496 1814.55 246.332 1812.96 244.708C1811.37 243.052 1808.92 242.041 1805.61 241.677L1796.74 240.699L1794.9 257.397L1803.77 258.376ZM1845.91 265.193L1824.91 262.879C1824.82 265.508 1825.59 267.734 1827.22 269.556C1828.86 271.346 1831.06 272.394 1833.83 272.699C1835.39 272.87 1836.85 272.758 1838.21 272.361C1839.58 271.932 1840.8 271.23 1841.87 270.253L1843.54 272.658C1842.28 273.872 1840.77 274.735 1839 275.249C1837.27 275.767 1835.41 275.915 1833.4 275.694C1830.82 275.41 1828.59 274.617 1826.71 273.314C1824.86 271.984 1823.49 270.287 1822.59 268.224C1821.69 266.161 1821.37 263.905 1821.64 261.456C1821.91 259.007 1822.68 256.87 1823.94 255.045C1825.24 253.224 1826.87 251.875 1828.83 250.997C1830.83 250.122 1832.99 249.813 1835.31 250.069C1837.63 250.325 1839.65 251.095 1841.38 252.38C1843.11 253.664 1844.39 255.335 1845.22 257.391C1846.06 259.415 1846.34 261.668 1846.07 264.148L1845.91 265.193ZM1834.99 252.979C1832.57 252.713 1830.45 253.267 1828.62 254.644C1826.83 255.992 1825.69 257.894 1825.19 260.35L1842.99 262.312C1843.04 259.806 1842.32 257.699 1840.84 255.99C1839.39 254.253 1837.44 253.249 1834.99 252.979ZM1877.58 254.922L1875.15 276.964C1874.68 281.226 1873.29 284.259 1870.96 286.064C1868.67 287.903 1865.42 288.592 1861.22 288.129C1858.9 287.873 1856.73 287.28 1854.71 286.348C1852.71 285.453 1851.13 284.328 1849.96 282.976L1851.96 280.589C1853.05 281.804 1854.42 282.808 1856.07 283.601C1857.75 284.399 1859.55 284.902 1861.46 285.113C1864.64 285.463 1867.06 284.973 1868.72 283.643C1870.38 282.345 1871.38 280.137 1871.72 277.02L1872.07 273.823C1870.85 275.298 1869.33 276.354 1867.52 276.992C1865.74 277.633 1863.82 277.84 1861.75 277.612C1859.4 277.352 1857.31 276.607 1855.48 275.375C1853.69 274.115 1852.34 272.501 1851.43 270.534C1850.55 268.538 1850.25 266.363 1850.51 264.01C1850.76 261.656 1851.54 259.616 1852.82 257.89C1854.14 256.168 1855.81 254.904 1857.83 254.096C1859.85 253.289 1862.05 253.016 1864.44 253.279C1866.57 253.514 1868.44 254.156 1870.07 255.204C1871.69 256.252 1872.94 257.645 1873.81 259.383L1874.34 254.564L1877.58 254.922ZM1862.42 274.643C1864.23 274.843 1865.91 274.642 1867.46 274.04C1869.01 273.406 1870.26 272.433 1871.21 271.121C1872.19 269.812 1872.78 268.268 1872.98 266.486C1873.17 264.705 1872.93 263.085 1872.26 261.626C1871.62 260.139 1870.61 258.933 1869.23 258.009C1867.88 257.056 1866.29 256.478 1864.44 256.274C1862.63 256.074 1860.95 256.275 1859.4 256.878C1857.89 257.483 1856.64 258.44 1855.66 259.749C1854.71 261.06 1854.14 262.607 1853.94 264.388C1853.74 266.169 1853.97 267.804 1854.61 269.291C1855.28 270.781 1856.29 272.003 1857.63 272.956C1859.01 273.881 1860.61 274.443 1862.42 274.643ZM1895.86 256.743C1899.13 257.104 1901.55 258.208 1903.12 260.054C1904.69 261.869 1905.3 264.383 1904.95 267.596L1903.23 283.15L1899.99 282.792L1900.42 278.88C1899.51 280.1 1898.27 280.993 1896.69 281.56C1895.15 282.13 1893.36 282.303 1891.33 282.079C1888.53 281.77 1886.37 280.857 1884.87 279.338C1883.36 277.82 1882.73 275.964 1882.97 273.769C1883.2 271.638 1884.16 270.005 1885.83 268.869C1887.53 267.736 1890.07 267.356 1893.44 267.728L1901.41 268.606L1901.57 267.079C1901.81 264.916 1901.39 263.212 1900.3 261.965C1899.22 260.687 1897.52 259.92 1895.2 259.664C1893.61 259.488 1892.05 259.591 1890.53 259.97C1889.01 260.318 1887.67 260.895 1886.52 261.702L1885.27 259.005C1886.66 258.063 1888.28 257.405 1890.13 257.028C1891.97 256.62 1893.88 256.525 1895.86 256.743ZM1892.14 279.465C1894.05 279.675 1895.74 279.426 1897.2 278.718C1898.67 277.978 1899.82 276.818 1900.68 275.238L1901.13 271.135L1893.26 270.267C1888.96 269.794 1886.65 271.052 1886.32 274.042C1886.16 275.505 1886.59 276.727 1887.61 277.709C1888.63 278.658 1890.14 279.244 1892.14 279.465ZM1919.13 285.144C1917.1 284.919 1915.17 284.417 1913.36 283.638C1911.58 282.83 1910.22 281.923 1909.27 280.917L1911.09 278.414C1912.04 279.356 1913.29 280.186 1914.82 280.902C1916.35 281.586 1917.98 282.023 1919.7 282.212C1921.99 282.464 1923.71 282.3 1924.87 281.72C1926.07 281.111 1926.73 280.154 1926.88 278.85C1926.98 277.928 1926.76 277.179 1926.21 276.603C1925.66 275.996 1924.94 275.514 1924.05 275.158C1923.16 274.77 1921.96 274.365 1920.46 273.942C1918.47 273.336 1916.88 272.774 1915.68 272.255C1914.48 271.705 1913.49 270.904 1912.71 269.851C1911.95 268.803 1911.67 267.435 1911.85 265.749C1912.09 263.65 1913.15 262.029 1915.05 260.886C1916.94 259.743 1919.45 259.343 1922.57 259.687C1924.19 259.865 1925.79 260.267 1927.36 260.891C1928.94 261.483 1930.21 262.187 1931.18 263.003L1929.41 265.559C1927.5 263.9 1925.11 262.913 1922.25 262.597C1920.08 262.359 1918.4 262.56 1917.21 263.2C1916.04 263.845 1915.39 264.787 1915.25 266.027C1915.15 266.982 1915.37 267.778 1915.91 268.417C1916.48 269.06 1917.21 269.575 1918.1 269.963C1919 270.32 1920.24 270.73 1921.83 271.195C1923.79 271.798 1925.36 272.356 1926.52 272.871C1927.69 273.386 1928.65 274.152 1929.41 275.169C1930.17 276.186 1930.45 277.506 1930.28 279.128C1930.03 281.323 1928.92 282.971 1926.93 284.071C1924.98 285.144 1922.38 285.501 1919.13 285.144ZM1957.16 270.598L1956.81 273.747L1935.14 279.761L1935.47 276.803L1953.79 271.821L1937 262.967L1937.33 259.961L1957.16 270.598Z" fill="white"/>
</svg>
