<svg width="64" height="64" viewBox="0 0 64 64" fill="none" xmlns="http://www.w3.org/2000/svg">
<path fill-rule="evenodd" clip-rule="evenodd" d="M16 28.3425C13.67 29.1645 12 31.3885 12 34.0005V53.8325C12 57.1465 14.686 59.8325 18 59.8325C24.926 59.8325 39.074 59.8325 46 59.8325C49.314 59.8325 52 57.1465 52 53.8325V34.0005C52 31.3885 50.33 29.1645 48 28.3425V19.9185C48 11.1265 40.874 4.00049 32.082 4.00049H31.918C23.126 4.00049 16 11.1265 16 19.9185V28.3425ZM46 32.0005C47.104 32.0005 48 32.8965 48 34.0005V53.8325C48 54.9365 47.104 55.8325 46 55.8325H18C16.896 55.8325 16 54.9365 16 53.8325V34.0005C16 32.8965 16.896 32.0005 18 32.0005H46ZM44 28.0005H20V19.9185C20 13.3365 25.336 8.00049 31.918 8.00049H32.082C38.664 8.00049 44 13.3365 44 19.9185V28.0005Z" fill="white"/>
<path fill-rule="evenodd" clip-rule="evenodd" d="M29.9962 47.5703V49.9983C29.9962 51.1023 30.8922 51.9983 31.9962 51.9983C33.1002 51.9983 33.9962 51.1023 33.9962 49.9983V47.5743C36.3282 46.7503 38.0002 44.5263 38.0002 41.9143C38.0002 38.6023 35.3122 35.9143 32.0002 35.9143C28.6882 35.9143 26.0002 38.6023 26.0002 41.9143C26.0002 44.5223 27.6682 46.7463 29.9962 47.5703ZM32.0002 39.9143C33.1042 39.9143 34.0002 40.8103 34.0002 41.9143C34.0002 43.0183 33.1042 43.9143 32.0002 43.9143C30.8962 43.9143 30.0002 43.0183 30.0002 41.9143C30.0002 40.8103 30.8962 39.9143 32.0002 39.9143Z" fill="white"/>
</svg>
