<svg width="64" height="64" viewBox="0 0 64 64" fill="none" xmlns="http://www.w3.org/2000/svg">
<path fill-rule="evenodd" clip-rule="evenodd" d="M49.0914 14.8398C53.3714 19.3278 56.0014 25.4018 56.0014 32.0838C56.0014 38.7318 53.3994 44.7778 49.1594 49.2578C48.3994 50.0598 48.4354 51.3258 49.2374 52.0858C50.0374 52.8438 51.3054 52.8098 52.0634 52.0078C56.9834 46.8098 60.0014 39.7958 60.0014 32.0838C60.0014 24.3318 56.9514 17.2858 51.9874 12.0798C51.2254 11.2818 49.9574 11.2518 49.1594 12.0118C48.3594 12.7738 48.3294 14.0418 49.0914 14.8398V14.8398Z" fill="white"/>
<path fill-rule="evenodd" clip-rule="evenodd" d="M11.8905 12.0798C6.92451 17.2858 3.87451 24.3318 3.87451 32.0838C3.87451 39.7958 6.89451 46.8098 11.8125 52.0078C12.5725 52.8098 13.8385 52.8438 14.6405 52.0858C15.4425 51.3258 15.4765 50.0598 14.7185 49.2578C10.4785 44.7778 7.87451 38.7318 7.87451 32.0838C7.87451 25.4018 10.5045 19.3278 14.7845 14.8398C15.5465 14.0418 15.5165 12.7738 14.7185 12.0118C13.9185 11.2518 12.6525 11.2818 11.8905 12.0798V12.0798Z" fill="white"/>
<path fill-rule="evenodd" clip-rule="evenodd" d="M43.8838 20.0886C46.9098 23.1706 48.7758 27.3926 48.7758 32.0486C48.7758 36.6866 46.9218 40.8966 43.9158 43.9766C43.1438 44.7666 43.1598 46.0346 43.9498 46.8046C44.7398 47.5766 46.0078 47.5606 46.7778 46.7706C50.4878 42.9706 52.7758 37.7746 52.7758 32.0486C52.7758 26.3026 50.4718 21.0906 46.7398 17.2866C45.9658 16.4986 44.6978 16.4866 43.9098 17.2586C43.1238 18.0326 43.1118 19.3006 43.8838 20.0886Z" fill="white"/>
<path fill-rule="evenodd" clip-rule="evenodd" d="M17.1373 17.2866C13.4033 21.0906 11.1013 26.3026 11.1013 32.0486C11.1013 37.7746 13.3873 42.9706 17.0973 46.7706C17.8693 47.5606 19.1373 47.5766 19.9273 46.8046C20.7153 46.0346 20.7313 44.7666 19.9613 43.9766C16.9533 40.8966 15.1013 36.6866 15.1013 32.0486C15.1013 27.3926 16.9673 23.1706 19.9913 20.0886C20.7653 19.3006 20.7533 18.0326 19.9653 17.2586C19.1773 16.4866 17.9093 16.4986 17.1373 17.2866V17.2866Z" fill="white"/>
<path fill-rule="evenodd" clip-rule="evenodd" d="M31.9995 26.0002C28.6875 26.0002 25.9995 28.6882 25.9995 32.0002C25.9995 35.3122 28.6875 38.0002 31.9995 38.0002C35.3115 38.0002 37.9995 35.3122 37.9995 32.0002C37.9995 28.6882 35.3115 26.0002 31.9995 26.0002ZM31.9995 30.0002C33.1035 30.0002 33.9995 30.8962 33.9995 32.0002C33.9995 33.1042 33.1035 34.0002 31.9995 34.0002C30.8955 34.0002 29.9995 33.1042 29.9995 32.0002C29.9995 30.8962 30.8955 30.0002 31.9995 30.0002Z" fill="white"/>
<path fill-rule="evenodd" clip-rule="evenodd" d="M38.3611 25.6874C39.9891 27.3154 40.9971 29.5634 40.9971 32.0454C40.9971 34.5314 39.9851 36.7854 38.3511 38.4134C37.5711 39.1934 37.5691 40.4614 38.3491 41.2434C39.1271 42.0234 40.3951 42.0254 41.1771 41.2454C43.5371 38.8914 44.9971 35.6374 44.9971 32.0454C44.9971 28.4614 43.5431 25.2114 41.1911 22.8594C40.4111 22.0794 39.1431 22.0774 38.3631 22.8594C37.5831 23.6394 37.5811 24.9054 38.3611 25.6874Z" fill="white"/>
<path fill-rule="evenodd" clip-rule="evenodd" d="M22.4776 22.8594C20.1276 25.2114 18.6716 28.4614 18.6716 32.0454C18.6716 35.6374 20.1336 38.8914 22.4936 41.2454C23.2736 42.0254 24.5416 42.0234 25.3216 41.2434C26.1016 40.4614 26.0996 39.1934 25.3176 38.4134C23.6836 36.7854 22.6716 34.5314 22.6716 32.0454C22.6716 29.5634 23.6796 27.3154 25.3076 25.6874C26.0876 24.9054 26.0876 23.6394 25.3076 22.8594C24.5256 22.0774 23.2576 22.0794 22.4776 22.8594V22.8594Z" fill="white"/>
</svg>
