<svg width="64" height="64" viewBox="0 0 64 64" fill="none" xmlns="http://www.w3.org/2000/svg">
<path fill-rule="evenodd" clip-rule="evenodd" d="M19.9998 4.00049C14.4798 4.00049 9.99976 8.48049 9.99976 14.0005C9.99976 19.5205 14.4798 24.0005 19.9998 24.0005C25.5198 24.0005 29.9998 19.5205 29.9998 14.0005C29.9998 8.48049 25.5198 4.00049 19.9998 4.00049ZM19.9998 8.00049C23.3118 8.00049 25.9998 10.6885 25.9998 14.0005C25.9998 17.3125 23.3118 20.0005 19.9998 20.0005C16.6878 20.0005 13.9998 17.3125 13.9998 14.0005C13.9998 10.6885 16.6878 8.00049 19.9998 8.00049Z" fill="white"/>
<path fill-rule="evenodd" clip-rule="evenodd" d="M43.9998 8.00024C38.4798 8.00024 33.9998 12.4802 33.9998 18.0002C33.9998 23.5202 38.4798 28.0002 43.9998 28.0002C49.5198 28.0002 53.9998 23.5202 53.9998 18.0002C53.9998 12.4802 49.5198 8.00024 43.9998 8.00024ZM43.9998 12.0002C47.3118 12.0002 49.9998 14.6882 49.9998 18.0002C49.9998 21.3122 47.3118 24.0002 43.9998 24.0002C40.6878 24.0002 37.9998 21.3122 37.9998 18.0002C37.9998 14.6882 40.6878 12.0002 43.9998 12.0002Z" fill="white"/>
<path fill-rule="evenodd" clip-rule="evenodd" d="M42.3464 58.0145C50.5984 54.7325 56.9264 47.6345 59.1484 38.9045C59.3464 38.1225 59.0564 37.2985 58.4124 36.8125C54.3984 33.7925 49.4064 32.0005 44.0004 32.0005C40.9684 32.0005 38.0664 32.5645 35.3944 33.5925C31.2264 30.1025 25.8564 28.0005 20.0004 28.0005C14.2864 28.0005 9.03638 30.0005 4.91238 33.3405C4.38238 33.7685 4.10838 34.4385 4.18438 35.1165C5.74238 49.1005 17.6144 59.9885 32.0104 59.9885C35.6604 59.9885 39.1484 59.2885 42.3464 58.0145V58.0145ZM8.30837 35.7765C11.5984 33.4005 15.6364 32.0005 20.0004 32.0005C31.0384 32.0005 40.0004 40.9625 40.0004 52.0005C40.0004 52.9105 39.9404 53.8085 39.8224 54.6865C37.3724 55.5305 34.7444 55.9885 32.0104 55.9885C20.0544 55.9885 10.1284 47.2265 8.30837 35.7765V35.7765ZM43.9324 52.8185C49.1024 49.8505 53.0664 45.0145 54.8964 39.2305C51.7604 37.1885 48.0184 36.0005 44.0004 36.0005C42.1044 36.0005 40.2704 36.2645 38.5344 36.7585C41.9484 40.9045 44.0004 46.2145 44.0004 52.0005C44.0004 52.2925 43.9744 52.5625 43.9324 52.8185V52.8185Z" fill="white"/>
</svg>
